{"title":"The.Darkest.Hour.2011.BRRip.XViD.DTRG","uid":7146180,"size":1637365360,"categoryP":"video","categoryS":"movies","magnet":"?xt=urn:btih:a23bd70d9764f92979a0635163e3107c067e6b51&amp;dn=The.Darkest.Hour.2011.BRRip.XViD.DTRG&amp;tr=udp%3A%2F%2Ftracker.openbittorrent.com%3A80&amp;tr=udp%3A%2F%2Fopen.demonii.com%3A1337&amp;tr=udp%3A%2F%2Ftracker.coppersurfer.tk%3A6969&amp;tr=udp%3A%2F%2Fexodus.desync.com%3A6969","seeders":0,"leechers":1,"uploader":".BONE.","files":4,"time":1333151042,"description":"Format : AVI\nFormat/Info : Audio Video Interleave\nFile size : 1.52 GiB\nDuration : 1h 23mn\nOverall bit rate : 2 591 Kbps\nWriting application : VirtualDubMod 1.5.10.2 (build 2540/release)\nWriting library : VirtualDubMod build 2540/release\n\nVideo\nID : 0\nFormat : MPEG-4 Visual\nFormat profile : Advanced Simple@L5\nFormat settings, BVOP : 2\nFormat settings, QPel : No\nFormat settings, GMC : No warppoints\nFormat settings, Matrix : Default (H.263)\nMuxing mode : Packed bitstream\nCodec ID : XVID\nCodec ID/Hint : XviD\nDuration : 1h 23mn\nBit rate : 2 197 Kbps\nWidth : 720 pixels\nHeight : 304 pixels\nDisplay aspect ratio : 2.35:1\nFrame rate : 23.976 fps\nColor space : YUV\nChroma subsampling : 4:2:0\nBit depth : 8 bits\nScan type : Progressive\nCompression mode : Lossy\nBits/(Pixel*Frame) : 0.419\nStream size : 1.29 GiB (85%)\nWriting library : XviD 64\n\nAudio\nID : 1\nFormat : AC-3\nFormat/Info : Audio Coding 3\nMode extension : CM (complete main)\nCodec ID : 2000\nDuration : 1h 23mn\nBit rate mode : Constant\nBit rate : 384 Kbps\nChannel(s) : 6 channels\nChannel positions : Front: L C R, Side: L R, LFE\nSampling rate : 48.0 KHz\nBit depth : 16 bits\nCompression mode : Lossy\nStream size : 230 MiB (15%)\nAlignment : Split accross interleaves\nInterleave, duration : 42 ms (1.00 video frame)\nInterleave, preload duration : 500 ms\n &lt;a href=&quot;\nhttp://www.imdb.com/title/tt1093357/&quot; rel=&quot;nofollow&quot; target=&quot;_NEW&quot;&gt;\nhttp://www.imdb.com/title/tt1093357/&lt;/a&gt;\n\nRatings: 4.9/10 from 6,051 users Metascore: 16/100 \nReviews: 79 user | 125 critic | 10 from Metacritic.com\n\nIn Moscow, five young people lead the charge against an alien race who have attacked Earth via our power supply.\n\nDirector:\nChris Gorak\nWriters:\nJon Spaihts (screenplay), Leslie Bohem (story), and 2 more credits Â»\nStars:\nEmile Hirsch, Olivia Thirlby and Max Minghella \n\nSource Used\n\nAMIABLE 720p ...............Thanks\n\nEnjoy","torrent":{"xt":"urn:btih:a23bd70d9764f92979a0635163e3107c067e6b51","amp;dn":"The.Darkest.Hour.2011.BRRip.XViD.DTRG","amp;tr":["udp%3A%2F%2Ftracker.openbittorrent.com%3A80","udp%3A%2F%2Fopen.demonii.com%3A1337","udp%3A%2F%2Ftracker.coppersurfer.tk%3A6969","udp%3A%2F%2Fexodus.desync.com%3A6969"],"infoHash":"a23bd70d9764f92979a0635163e3107c067e6b51","infoHashBuffer":{"type":"Buffer","data":[162,59,215,13,151,100,249,41,121,160,99,81,99,227,16,124,6,126,107,81]},"announce":[],"urlList":[]}}